<?xml version="1.0" standalone="no"?>
<!DOCTYPE svg PUBLIC "-//W3C//DTD SVG 20010904//EN"
 "http://www.w3.org/TR/2001/REC-SVG-20010904/DTD/svg10.dtd">
<svg version="1.0" xmlns="http://www.w3.org/2000/svg"
 width="512.000000pt" height="512.000000pt" viewBox="0 0 512.000000 512.000000"
 preserveAspectRatio="xMidYMid meet">
<metadata>
Created by potrace 1.11, written by Peter Selinger 2001-2013
</metadata>
<g transform="translate(0.000000,512.000000) scale(0.100000,-0.100000)"
fill="#000000" stroke="none">
<path d="M745 4378 c-3 -7 -4 -809 -3 -1783 l3 -1770 1188 -3 1187 -2 0 115 0
115 -829 0 -829 0 -95 -95 c-52 -52 -97 -95 -101 -95 -3 0 -7 42 -8 92 l-3 93
-142 3 -143 3 0 1554 0 1555 1555 0 1555 0 0 -100 0 -100 115 0 115 0 0 209
c0 181 -2 210 -16 215 -9 3 -810 6 -1780 6 -1403 0 -1766 -3 -1769 -12z"/>
<path d="M4187 3832 l-107 -107 0 -838 0 -837 115 0 115 0 0 939 c0 517 -4
942 -8 945 -5 3 -56 -43 -115 -102z"/>
<path d="M1940 3340 c-14 -5 -42 -11 -62 -15 -21 -3 -38 -10 -38 -15 0 -6 -9
-10 -19 -10 -11 0 -26 -7 -35 -15 -8 -8 -19 -15 -24 -15 -18 0 -104 -104 -125
-150 -14 -32 -22 -77 -26 -155 l-6 -110 -77 -3 -78 -3 0 -124 0 -125 80 0 80
0 0 -420 0 -420 185 0 185 0 0 420 0 420 130 0 130 0 0 125 0 125 -107 2 c-60
0 -118 0 -130 -1 -21 -2 -23 2 -23 50 0 28 7 66 15 83 16 33 68 66 104 66 19
0 82 -23 115 -41 25 -14 31 -6 102 136 62 124 63 118 -26 157 -91 39 -283 61
-350 38z"/>
<path d="M2975 2904 c-11 -3 -34 -12 -52 -20 -17 -8 -36 -14 -42 -14 -6 0 -11
-4 -11 -9 0 -5 -11 -11 -23 -15 -13 -3 -45 -28 -70 -55 l-47 -50 0 79 0 80
-190 0 -190 0 0 -570 0 -570 190 0 190 0 0 318 c0 315 0 317 25 367 30 62 41
75 86 103 29 17 52 22 110 22 83 0 118 -17 160 -79 l24 -36 3 -348 3 -347 187
2 187 3 3 340 c3 408 -5 508 -49 594 -33 63 -97 136 -130 146 -10 4 -19 11
-19 16 0 5 -6 9 -12 9 -7 0 -26 8 -43 17 -22 12 -60 17 -150 19 -66 2 -129 0
-140 -2z"/>
<path d="M4080 1360 l0 -310 -292 -2 -293 -3 -3 -112 -3 -113 296 0 295 0 2
-312 3 -313 105 0 105 0 2 310 2 310 308 5 307 5 2 80 c0 44 -1 95 -4 113 l-4
32 -304 0 -304 0 -2 308 -3 307 -107 3 -108 3 0 -311z"/>
</g>
</svg>
